{
  "accessors": [
    {
      "bufferView": 2,
      "componentType": 5126,
      "count": 2175,
      "max": [
        0.724609375,
        0.58447265625,
        0.34423828125
      ],
      "min": [
        -0.5703125,
        -0.46240234375,
        0.00634765625
      ],
      "type": "VEC3"
    },
    {
      "bufferView": 2,
      "byteOffset": 26100,
      "componentType": 5126,
      "count": 2175,
      "max": [
        1.0,
        1.0,
        1.0
      ],
      "min": [
        -1.0,
        -1.0,
        -0.999985933303833
      ],
      "type": "VEC3"
    },
    {
      "bufferView": 1,
      "componentType": 5126,
      "count": 2175,
      "max": [
        1.415802001953125,
        1.0
      ],
      "min": [
        -0.2388763427734375,
        7.62939453125e-05
      ],
      "type": "VEC2"
    },
    {
      "bufferView": 0,
      "componentType": 5125,
      "count": 4122,
      "type": "SCALAR"
    },
    {
      "bufferView": 2,
      "byteOffset": 52200,
      "componentType": 5126,
      "count": 238,
      "max": [
        0.6259765625,
        0.5986328125,
        0.31201171875
      ],
      "min": [
        -0.724609375,
        -0.5986328125,
        0.0
      ],
      "type": "VEC3"
    },
    {
      "bufferView": 2,
      "byteOffset": 55056,
      "componentType": 5126,
      "count": 238,
      "max": [
        0.9999996423721313,
        0.7830357551574707,
        0.9999940395355225
      ],
      "min": [
        -0.7284741401672363,
        -0.778343677520752,
        -0.0013392223045229912
      ],
      "type": "VEC3"
    },
    {
      "bufferView": 3,
      "componentType": 5126,
      "count": 238,
      "max": [
        0.9997348189353943,
        0.9979334473609924,
        0.7324565649032593,
        1.0
      ],
      "min": [
        -0.9465867877006531,
        -0.9999995827674866,
        -0.8080719709396362,
        -1.0
      ],
      "type": "VEC4"
    },
    {
      "bufferView": 1,
      "byteOffset": 17400,
      "componentType": 5126,
      "count": 238,
      "max": [
        1.4264678955078125,
        1.4264678955078125
      ],
      "min": [
        -0.4264678955078125,
        -0.4264678955078125
      ],
      "type": "VEC2"
    },
    {
      "bufferView": 1,
      "byteOffset": 19304,
      "componentType": 5126,
      "count": 238,
      "max": [
        1.4264678955078125,
        1.4264678955078125
      ],
      "min": [
        -0.4264678955078125,
        -0.4264678955078125
      ],
      "type": "VEC2"
    },
    {
      "bufferView": 0,
      "byteOffset": 16488,
      "componentType": 5125,
      "count": 750,
      "type": "SCALAR"
    }
  ],
  "asset": {
    "extras": {
      "author": "streetpharmacy (https://sketchfab.com/streetpharmacy)",
      "license": "CC-BY-4.0 (http://creativecommons.org/licenses/by/4.0/)",
      "source": "https://sketchfab.com/3d-models/cash-pile-and-money-stacks-87fa8f53ad404b1487ecf85fb1404eeb",
      "title": "Cash Pile and Money Stacks"
    },
    "generator": "Sketchfab-16.43.0",
    "version": "2.0"
  },
  "bufferViews": [
    {
      "buffer": 0,
      "byteLength": 19488,
      "name": "floatBufferViews",
      "target": 34963
    },
    {
      "buffer": 0,
      "byteLength": 21208,
      "byteOffset": 19488,
      "byteStride": 8,
      "name": "floatBufferViews",
      "target": 34962
    },
    {
      "buffer": 0,
      "byteLength": 57912,
      "byteOffset": 40696,
      "byteStride": 12,
      "name": "floatBufferViews",
      "target": 34962
    },
    {
      "buffer": 0,
      "byteLength": 3808,
      "byteOffset": 98608,
      "byteStride": 16,
      "name": "floatBufferViews",
      "target": 34962
    }
  ],
  "buffers": [
    {
      "byteLength": 102416,
      "uri": "scene.bin"
    }
  ],
  "images": [
    {
      "uri": "textures/100_Dollar_baseColor.png"
    },
    {
      "uri": "textures/Cash_Pile_baseColor.png"
    },
    {
      "uri": "textures/Cash_Pile_normal.png"
    }
  ],
  "materials": [
    {
      "doubleSided": true,
      "name": "100_Dollar",
      "pbrMetallicRoughness": {
        "baseColorTexture": {
          "index": 0
        },
        "metallicFactor": 0.0,
        "roughnessFactor": 0.8211145618000169
      }
    },
    {
      "doubleSided": true,
      "name": "Cash_Pile",
      "normalTexture": {
        "index": 2
      },
      "pbrMetallicRoughness": {
        "baseColorTexture": {
          "index": 1
        },
        "metallicFactor": 0.0,
        "roughnessFactor": 0.8211145618000169
      }
    }
  ],
  "meshes": [
    {
      "name": "cashpile_04_100_Dollar_0",
      "primitives": [
        {
          "attributes": {
            "NORMAL": 1,
            "POSITION": 0,
            "TEXCOORD_0": 2
          },
          "indices": 3,
          "material": 0,
          "mode": 4
        }
      ]
    },
    {
      "name": "cashpile_04_Cash_Pile_0",
      "primitives": [
        {
          "attributes": {
            "NORMAL": 5,
            "POSITION": 4,
            "TANGENT": 6,
            "TEXCOORD_0": 7,
            "TEXCOORD_1": 8
          },
          "indices": 9,
          "material": 1,
          "mode": 4
        }
      ]
    }
  ],
  "nodes": [
    {
      "children": [
        1
      ],
      "matrix": [
        1.0,
        0.0,
        0.0,
        0.0,
        0.0,
        2.220446049250313e-16,
        -1.0,
        0.0,
        0.0,
        1.0,
        2.220446049250313e-16,
        0.0,
        0.0,
        0.0,
        0.0,
        1.0
      ],
      "name": "Sketchfab_model"
    },
    {
      "children": [
        2
      ],
      "matrix": [
        0.009999999776482582,
        0.0,
        0.0,
        0.0,
        0.0,
        0.0,
        0.009999999776482582,
        0.0,
        0.0,
        -0.009999999776482582,
        0.0,
        0.0,
        0.0,
        0.0,
        0.0,
        1.0
      ],
      "name": "cashpile 4.fbx"
    },
    {
      "children": [
        3
      ],
      "name": "RootNode"
    },
    {
      "children": [
        4,
        5
      ],
      "matrix": [
        100.0,
        0.0,
        0.0,
        0.0,
        0.0,
        -1.629206793918314e-05,
        -99.99999999999868,
        0.0,
        0.0,
        99.99999999999868,
        -1.629206793918314e-05,
        0.0,
        0.0,
        0.0,
        0.0,
        1.0
      ],
      "name": "cashpile_04"
    },
    {
      "mesh": 0,
      "name": "cashpile_04_100_Dollar_0"
    },
    {
      "mesh": 1,
      "name": "cashpile_04_Cash_Pile_0"
    }
  ],
  "samplers": [
    {
      "magFilter": 9729,
      "minFilter": 9987,
      "wrapS": 10497,
      "wrapT": 10497
    }
  ],
  "scene": 0,
  "scenes": [
    {
      "name": "Sketchfab_Scene",
      "nodes": [
        0
      ]
    }
  ],
  "textures": [
    {
      "sampler": 0,
      "source": 0
    },
    {
      "sampler": 0,
      "source": 1
    },
    {
      "sampler": 0,
      "source": 2
    }
  ]
}
